<svg width="15" height="12" viewBox="0 0 15 12" fill="none" xmlns="http://www.w3.org/2000/svg">
<path d="M5.74431 11.6452C5.60109 11.7892 5.40657 11.8696 5.20285 11.8696C4.99913 11.8696 4.80461 11.7892 4.66139 11.6452L0.337386 7.32118C-0.111404 6.87239 -0.111404 6.14559 0.337386 5.6968L0.878844 5.15534C1.32763 4.70655 2.05443 4.70655 2.50322 5.15534L5.20285 7.85498L12.4976 0.560225C12.9464 0.111435 13.6732 0.111435 14.122 0.560225L14.6634 1.10168C15.1122 1.55047 15.1122 2.27727 14.6634 2.72606L5.74431 11.6452Z" fill="#2190F2"/>
<path d="M1.69062 4.81836C1.39653 4.81836 1.10245 4.93017 0.878051 5.15534L0.336592 5.69679C-0.112197 6.14558 -0.112197 6.87238 0.336592 7.32117L4.6606 11.6452C4.80458 11.7892 4.99911 11.8696 5.20282 11.8696C5.40654 11.8696 5.60107 11.7892 5.74428 11.6452L7.50038 9.88907V5.55741L5.20282 7.85497L2.50319 5.15534C2.2788 4.93017 1.98471 4.81836 1.69062 4.81836Z" fill="#005AAA"/>
</svg>
