<svg width="21" height="21" viewBox="0 0 21 21" fill="none" xmlns="http://www.w3.org/2000/svg">
<circle cx="10.5" cy="10.5" r="10" transform="matrix(-1 0 0 1 21 0)" fill="white" stroke="#ADADAD"/>
<g clip-path="url(#clip0_105_10)">
<path d="M15.7179 13.9243L7.09723 5.30358C6.72125 4.9276 6.11171 4.9276 5.73632 5.30358L5.28198 5.75721C4.90601 6.1333 4.90601 6.74285 5.28198 7.11824L13.9027 15.739C14.2788 16.1149 14.8883 16.1149 15.2637 15.739L15.7174 15.2853C16.094 14.9099 16.094 14.3003 15.7179 13.9243Z" fill="#FF0613"/>
<path d="M13.9027 5.30381L5.28198 13.9245C4.90601 14.3005 4.90601 14.9102 5.28198 15.2856L5.73562 15.7392C6.11171 16.1152 6.72125 16.1152 7.09664 15.7392L15.7179 7.11906C16.094 6.74308 16.094 6.13354 15.7179 5.75815L15.2643 5.30451C14.8883 4.92784 14.2788 4.92784 13.9027 5.30381Z" fill="#FF0613"/>
</g>
<defs>
<clipPath id="clip0_105_10">
<rect width="11" height="11" fill="white" transform="translate(5 5)"/>
</clipPath>
</defs>
</svg>
