<svg width="30" height="34" viewBox="0 0 30 34" fill="none" xmlns="http://www.w3.org/2000/svg">
<path d="M26.5359 3.93125H21.6219V2.94844C21.6219 1.32267 20.2992 0 18.6734 0H10.8109C9.18517 0 7.8625 1.32267 7.8625 2.94844V3.93125H2.94844C1.32267 3.93125 0 5.25392 0 6.87969C0 8.18539 0.853409 9.29485 2.03147 9.68142L3.78448 30.843C3.91074 32.3591 5.20137 33.5467 6.7227 33.5467H22.7617C24.2831 33.5467 25.5737 32.3591 25.7 30.8426L27.4529 9.68136C28.631 9.29485 29.4844 8.18539 29.4844 6.87969C29.4844 5.25392 28.1617 3.93125 26.5359 3.93125ZM9.82812 2.94844C9.82812 2.40651 10.269 1.96562 10.8109 1.96562H18.6734C19.2154 1.96562 19.6562 2.40651 19.6562 2.94844V3.93125H9.82812V2.94844ZM23.7411 30.6799C23.6989 31.1852 23.2688 31.581 22.7617 31.581H6.7227C6.21563 31.581 5.78542 31.1852 5.74342 30.6803L4.01603 9.82812H25.4683L23.7411 30.6799ZM26.5359 7.8625H2.94844C2.40651 7.8625 1.96562 7.42161 1.96562 6.87969C1.96562 6.33776 2.40651 5.89687 2.94844 5.89687H26.5359C27.0779 5.89687 27.5187 6.33776 27.5187 6.87969C27.5187 7.42161 27.0779 7.8625 26.5359 7.8625Z" fill="black"/>
<path d="M10.8099 28.5718L9.82708 12.7157C9.79347 12.1739 9.32454 11.7619 8.78537 11.7956C8.24358 11.8292 7.83165 12.2956 7.86519 12.8373L8.84801 28.6935C8.88031 29.2145 9.31301 29.6155 9.828 29.6155C10.3972 29.6155 10.8448 29.1361 10.8099 28.5718Z" fill="black"/>
<path d="M14.7426 11.794C14.1998 11.794 13.7598 12.234 13.7598 12.7768V28.6328C13.7598 29.1756 14.1998 29.6156 14.7426 29.6156C15.2854 29.6156 15.7254 29.1756 15.7254 28.6328V12.7768C15.7254 12.234 15.2854 11.794 14.7426 11.794Z" fill="black"/>
<path d="M20.7003 11.7959C20.1597 11.7623 19.6921 12.1742 19.6585 12.716L18.6757 28.572C18.6423 29.1138 19.0542 29.5801 19.5959 29.6138C20.138 29.6473 20.6041 29.2352 20.6376 28.6937L21.6204 12.8376C21.654 12.2958 21.2421 11.8294 20.7003 11.7959Z" fill="black"/>
</svg>
