<svg width="172" height="172" viewBox="0 0 172 172" fill="none" xmlns="http://www.w3.org/2000/svg">
<path d="M30 11H67.5V2L142 11V160L67.5 168.5V160H30V11Z" fill="none" fill-opacity="0.2"/>
<rect x="44" y="25" width="21" height="134" fill="white"/>
<path d="M169.035 157.322H146.046V11.7247C146.046 10.9989 145.779 10.2986 145.295 9.75757C144.811 9.21654 144.145 8.87272 143.424 8.7918L65.7989 0.0302996C65.3858 -0.016261 64.9675 0.0249224 64.5714 0.151157C64.1753 0.277391 63.8104 0.485832 63.5004 0.76284C63.1904 1.03985 62.9424 1.37918 62.7726 1.75864C62.6028 2.13811 62.515 2.54914 62.515 2.96486V8.77155H28.9068C28.1236 8.77155 27.3724 9.08268 26.8186 9.6365C26.2648 10.1903 25.9537 10.9415 25.9537 11.7247V157.322H2.96484C2.18163 157.322 1.43049 157.633 0.87667 158.187C0.322852 158.741 0.0117187 159.492 0.0117188 160.275C0.0117187 161.059 0.322852 161.81 0.87667 162.363C1.43049 162.917 2.18163 163.228 2.96484 163.228H62.515V169.035C62.515 169.818 62.8262 170.569 63.38 171.123C63.9338 171.677 64.6849 171.988 65.4682 171.988C65.5809 171.989 65.6936 171.983 65.8057 171.97L143.262 163.228H169.04C169.823 163.228 170.574 162.917 171.128 162.363C171.682 161.81 171.993 161.059 171.993 160.275C171.993 159.492 171.682 158.741 171.128 158.187C170.574 157.633 169.823 157.322 169.04 157.322H169.035ZM31.8599 14.6778H62.515V22.2716H42.4051C41.6219 22.2716 40.8707 22.5827 40.3169 23.1365C39.7631 23.6903 39.452 24.4415 39.452 25.2247V157.322H31.8582L31.8599 14.6778ZM45.3599 157.322V28.1778H62.515V157.322H45.3599ZM68.4213 6.26899L140.14 14.369V157.638L68.4213 165.738V6.26899Z" fill="black"/>
<path d="M81.1485 77.2115C79.4103 77.2115 77.7111 77.7269 76.2659 78.6926C74.8206 79.6583 73.6942 81.0309 73.029 82.6368C72.3638 84.2427 72.1898 86.0097 72.5289 87.7145C72.868 89.4193 73.705 90.9853 74.9341 92.2144C76.1632 93.4435 77.7291 94.2805 79.4339 94.6196C81.1387 94.9587 82.9058 94.7847 84.5117 94.1195C86.1176 93.4543 87.4902 92.3279 88.4559 90.8826C89.4216 89.4374 89.937 87.7382 89.937 86C89.9343 83.67 89.0075 81.4361 87.3599 79.7885C85.7123 78.141 83.4785 77.2142 81.1485 77.2115ZM81.1485 88.8822C80.5784 88.8822 80.0212 88.7132 79.5472 88.3965C79.0732 88.0798 78.7038 87.6296 78.4856 87.103C78.2675 86.5763 78.2104 85.9968 78.3216 85.4377C78.4328 84.8786 78.7073 84.365 79.1104 83.9619C79.5135 83.5588 80.0271 83.2843 80.5862 83.1731C81.1453 83.0619 81.7248 83.119 82.2515 83.3371C82.7781 83.5553 83.2283 83.9247 83.545 84.3987C83.8617 84.8727 84.0307 85.4299 84.0307 86C84.0298 86.7641 83.7259 87.4967 83.1856 88.0371C82.6452 88.5774 81.9126 88.8813 81.1485 88.8822Z" fill="black"/>
</svg>
