<svg width="41" height="41" viewBox="0 0 41 41" fill="none" xmlns="http://www.w3.org/2000/svg">
<g clip-path="url(#clip0_676_89)">
<path d="M9.08646 24.7768L7.65931 30.1046L2.4431 30.2149C0.884223 27.3236 0 24.0155 0 20.5C0 17.1006 0.826727 13.8949 2.29216 11.0723H2.29328L6.93717 11.9237L8.97147 16.5397C8.5457 17.781 8.31363 19.1135 8.31363 20.5C8.31379 22.0049 8.58638 23.4467 9.08646 24.7768Z" fill="#FBBB00"/>
<path d="M40.6423 16.6704C40.8777 17.9105 41.0005 19.1912 41.0005 20.5001C41.0005 21.9677 40.8462 23.3994 40.5522 24.7803C39.5543 29.4795 36.9467 33.5829 33.3345 36.4867L33.3333 36.4856L27.4841 36.1871L26.6563 31.0193C29.0532 29.6136 30.9263 27.4138 31.9131 24.7803H20.9512V16.6704H32.073H40.6423Z" fill="#518EF8"/>
<path d="M33.333 36.4855L33.3341 36.4866C29.821 39.3104 25.3583 41 20.5003 41C12.6934 41 5.90586 36.6364 2.44336 30.215L9.08672 24.7769C10.8179 29.3972 15.275 32.6863 20.5003 32.6863C22.7462 32.6863 24.8503 32.0791 26.6559 31.0192L33.333 36.4855Z" fill="#28B446"/>
<path d="M33.5859 4.71948L26.9448 10.1565C25.0762 8.98845 22.8673 8.31371 20.5008 8.31371C15.1573 8.31371 10.6168 11.7536 8.97237 16.5397L2.29409 11.0722H2.29297C5.70478 4.49423 12.5779 0 20.5008 0C25.4749 0 30.0356 1.77181 33.5859 4.71948Z" fill="#F14336"/>
</g>
<defs>
<clipPath id="clip0_676_89">
<rect width="41" height="41" fill="white"/>
</clipPath>
</defs>
</svg>
