<svg width="198" height="49" viewBox="0 0 198 49" fill="none" xmlns="http://www.w3.org/2000/svg">
<path d="M20.0534 13.3682H11.9219V21.6534H20.0534V13.3682Z" fill="#FF0613"/>
<path d="M7.0332 8.38672V23.7882V25.3639V40.7653H22.1489H23.6953H38.811V8.38672H7.0332ZM9.82685 11.284H22.1489V23.839H9.82685V11.284ZM9.82685 37.9189V25.3639H22.1489V37.9189H9.82685ZM23.6953 37.9189V11.284H36.0173V23.839H29.8314V25.4147H36.0173V37.9189H23.6953Z" fill="#005AAA"/>
<path d="M60.8111 8.94604C59.963 8.64106 59.065 8.43774 58.0174 8.43774H50.3848V25.2624H53.7272V20.5861H58.0174C59.0152 20.5861 59.963 20.4336 60.7612 20.1286C61.6093 19.8236 62.2578 19.3662 62.8065 18.807C63.8542 17.638 64.4029 16.2147 64.4029 14.5882C64.4029 12.9616 63.8542 11.5384 62.8065 10.3693C62.3077 9.75932 61.6093 9.30185 60.8111 8.94604ZM60.2623 16.8755C59.7635 17.4855 59.0152 17.7904 58.0174 17.7904H53.7272V11.2334H58.0174C58.9653 11.2334 59.7136 11.5384 60.2623 12.1992C60.8111 12.8599 61.0605 13.6224 61.0605 14.5373C61.0605 15.4523 60.8111 16.2147 60.2623 16.8755Z" fill="#005AAA"/>
<path d="M80.5168 17.3838C81.2152 16.4688 81.5146 15.2997 81.5146 13.9273C81.5146 12.5041 81.0157 11.2842 79.9681 10.2167C79.4692 9.65761 78.7708 9.25097 77.9726 8.94599C77.1744 8.64101 76.2765 8.48853 75.2787 8.48853H67.2969V25.3132H70.6393V19.6203H73.6824L78.4715 25.2624H82.4125L77.0747 19.3153C78.671 18.9595 79.8184 18.2987 80.5168 17.3838ZM70.6393 17.0279V11.2333H75.2787C75.8774 11.2333 76.4261 11.3858 76.8751 11.6908C77.3241 11.9958 77.6733 12.3516 77.8728 12.7582C78.0724 13.1649 78.1722 13.5715 78.1722 14.029C78.1722 14.9947 77.9227 15.7064 77.4239 16.2655C76.925 16.8246 76.1767 17.0788 75.179 17.0788H70.6393V17.0279Z" fill="#005AAA"/>
<path d="M99.1747 10.5217C98.4264 9.75922 97.4786 9.14926 96.3312 8.69179C95.2337 8.28516 93.9865 8.03101 92.6396 8.03101C91.2926 8.03101 90.0455 8.23433 88.948 8.69179C87.8006 9.14926 86.8527 9.75922 86.1044 10.5725C85.3561 11.3858 84.7575 12.3007 84.3584 13.3681C83.9593 14.4356 83.7598 15.6047 83.7598 16.8246C83.7598 18.5528 84.109 20.0269 84.8573 21.3993C85.6056 22.7208 86.6033 23.7374 88.0001 24.4999C89.3471 25.2623 90.9434 25.6181 92.6895 25.6181C94.4854 25.6181 96.0319 25.2623 97.3788 24.4999C98.7258 23.7374 99.7734 22.7208 100.472 21.3993C101.22 20.0777 101.569 18.5528 101.569 16.8246C101.569 15.5538 101.37 14.3847 100.921 13.2665C100.572 12.2499 99.9729 11.3349 99.1747 10.5217ZM97.5784 19.8235C97.1294 20.6876 96.4809 21.3993 95.6328 21.9076C94.7847 22.4159 93.787 22.7208 92.6895 22.7208C91.592 22.7208 90.5942 22.4667 89.7462 21.9076C88.8981 21.3484 88.2496 20.6876 87.8006 19.7727C87.3516 18.8578 87.1521 17.9428 87.1521 16.8754C87.1521 15.808 87.3516 14.7914 87.8006 13.9273C88.2496 13.0632 88.8981 12.3515 89.6963 11.8432C90.5444 11.2841 91.5421 11.03 92.6895 11.03C94.3856 11.03 95.7326 11.5891 96.7802 12.7074C97.8278 13.8256 98.3267 15.2488 98.2768 16.9262C98.2269 17.9428 98.0273 18.9594 97.5784 19.8235Z" fill="#005AAA"/>
<path d="M136.339 17.3838C137.038 16.4688 137.337 15.2997 137.337 13.9273C137.337 12.5041 136.838 11.2842 135.79 10.2167C135.291 9.65761 134.593 9.25097 133.795 8.94599C132.997 8.64101 132.099 8.48853 131.101 8.48853H123.119V25.3132H126.462V19.6203H129.505L134.294 25.2624H138.235L132.897 19.3153C134.543 18.9595 135.691 18.2987 136.339 17.3838ZM126.462 17.0279V11.2333H131.101C131.7 11.2333 132.248 11.3858 132.697 11.6908C133.146 11.9958 133.496 12.3516 133.695 12.7582C133.895 13.1649 133.994 13.5715 133.994 14.029C133.994 14.9947 133.745 15.7064 133.246 16.2655C132.747 16.8246 131.999 17.0788 131.001 17.0788H126.462V17.0279Z" fill="#005AAA"/>
<path d="M146.316 8.43774L139.133 25.2624H142.725L144.022 22.0093H152.004L153.301 25.2624H156.942L149.759 8.43774H146.316ZM145.119 19.2645L148.013 11.8942L150.906 19.2645H145.119Z" fill="#005AAA"/>
<path d="M171.51 10.1151C170.064 8.99687 168.218 8.43774 165.973 8.43774H159.338V25.2624H165.973C167.12 25.2624 168.118 25.1099 169.116 24.805C170.064 24.5 170.912 24.0933 171.56 23.5342C172.209 22.9751 172.807 22.3651 173.256 21.6535C174.154 20.2303 174.653 18.6037 174.653 16.8247C174.653 15.5031 174.404 14.2324 173.855 13.0633C173.306 11.8942 172.558 10.9284 171.51 10.1151ZM171.161 18.4004C171.011 18.9087 170.812 19.417 170.512 19.9253C170.213 20.3828 169.864 20.8402 169.465 21.196C169.066 21.5519 168.567 21.8568 167.968 22.0602C167.37 22.2635 166.721 22.3651 166.023 22.3651H162.68V11.335H166.023C166.871 11.335 167.669 11.4875 168.317 11.7925C169.016 12.0975 169.565 12.5041 170.014 13.0633C170.912 14.1307 171.361 15.4014 171.361 16.8247C171.361 17.333 171.261 17.8413 171.161 18.4004Z" fill="#005AAA"/>
<path d="M181.237 22.3651V18.1463H189.668V15.4014H181.237V11.3859H190.166V8.43774H177.994V25.2624H190.566V22.3651H181.237Z" fill="#004F9F"/>
<path d="M117.681 16.3163H112.742V18.9086H116.134V22.2634C114.987 22.5683 113.939 22.7208 112.942 22.7208C111.994 22.7208 111.196 22.5683 110.398 22.2634C109.649 21.9584 109.001 21.5518 108.552 20.9926C107.604 19.9252 107.105 18.5528 107.105 16.9771C107.105 15.3505 107.554 13.9781 108.502 12.809C108.951 12.2499 109.599 11.7924 110.348 11.4366C111.096 11.1316 111.944 10.9283 112.892 10.9283C114.339 10.9283 115.935 11.3349 117.681 12.1482L119.028 9.50507C117.032 8.5393 114.937 8.03101 112.742 8.03101C110.048 8.03101 107.853 8.84428 106.257 10.5217C104.611 12.1991 103.812 14.3847 103.812 17.0787C103.812 18.502 104.062 19.7727 104.611 20.9926C105.11 22.1617 105.908 23.1783 106.955 23.9408C108.452 25.059 110.447 25.669 112.942 25.669C113.989 25.669 115.137 25.5165 116.384 25.2115C117.631 24.9065 118.629 24.5507 119.377 24.1441V16.3163H117.681Z" fill="#005AAA"/>
<path d="M58.7652 40.7145H56.8696L56.221 38.9862H52.0305L51.382 40.7145H49.4863L53.2278 31.9209H55.0237L58.7652 40.7145ZM54.0759 33.6999L52.5294 37.563H55.5725L54.0759 33.6999Z" fill="#FF0613"/>
<path d="M62.3565 31.9209V39.1896H66.5968V40.7145H60.5605V31.9209H62.3565Z" fill="#FF0613"/>
<path d="M75.6767 31.9209V37.1055C75.6767 37.7663 75.5769 38.3255 75.3774 38.7829C75.1778 39.2912 74.9284 39.6979 74.5792 40.0028C74.23 40.3078 73.8309 40.562 73.3819 40.7145C72.9329 40.867 72.3842 40.9686 71.8354 40.9686C70.688 40.9686 69.7901 40.6636 69.0916 40.0537C68.7424 39.7487 68.493 39.3421 68.2935 38.8338C68.0939 38.3255 67.9941 37.7663 67.9941 37.1055V31.9209H69.7402V37.0547C69.7402 37.4614 69.7901 37.868 69.8898 38.173C69.9896 38.478 70.1393 38.7321 70.3388 38.8846C70.5384 39.0371 70.7379 39.1896 70.9873 39.2404C71.2368 39.3421 71.4862 39.3421 71.7855 39.3421C72.3842 39.3421 72.883 39.1896 73.2821 38.8338C73.7311 38.478 73.9306 37.868 73.9306 37.0039V31.9209H75.6767Z" fill="#FF0613"/>
<path d="M82.8602 36.2923L85.554 31.9717H87.4497V40.7653H85.7037V34.5132L82.91 38.6813H82.7105L79.9667 34.5132V40.7145H78.2207V31.9209H80.1164L82.8602 36.2923Z" fill="#FF0613"/>
<path d="M91.9394 40.7145H90.1934V31.9209H91.9394V40.7145Z" fill="#FF0613"/>
<path d="M100.77 36.0889V31.9209H102.516V40.7145H101.119L96.3797 34.869L96.4296 37.0039V40.7145H94.6836V31.9209H96.0804L100.87 38.0713L100.77 36.0889Z" fill="#FF0613"/>
<path d="M112.892 31.9209V37.1055C112.892 37.7663 112.792 38.3255 112.592 38.7829C112.393 39.2912 112.143 39.6979 111.794 40.0028C111.445 40.3078 111.046 40.562 110.597 40.7145C110.148 40.867 109.599 40.9686 109.05 40.9686C107.903 40.9686 107.005 40.6636 106.306 40.0537C105.957 39.7487 105.708 39.3421 105.508 38.8338C105.309 38.3255 105.209 37.7663 105.209 37.1055V31.9209H106.955V37.0547C106.955 37.4614 107.005 37.868 107.105 38.173C107.204 38.478 107.354 38.7321 107.554 38.8846C107.753 39.0371 107.953 39.1896 108.202 39.2404C108.452 39.3421 108.701 39.3421 109 39.3421C109.599 39.3421 110.098 39.1896 110.497 38.8338C110.946 38.478 111.145 37.868 111.145 37.0039V31.9209H112.892Z" fill="#FF0613"/>
<path d="M120.026 36.2923L122.72 31.9717H124.616V40.7653H122.87V34.5132L120.076 38.6813H119.877L117.133 34.5132V40.7145H115.387V31.9209H117.282L120.026 36.2923Z" fill="#FF0613"/>
<path d="M136.838 32.4801L136.439 33.395C135.491 32.9884 134.543 32.7851 133.695 32.7851C133.196 32.7851 132.698 32.8867 132.249 33.0392C131.999 33.1409 131.8 33.2934 131.65 33.4967C131.5 33.7 131.45 33.9541 131.45 34.2083C131.45 34.4116 131.5 34.5641 131.6 34.7166C131.75 34.8691 131.899 35.0216 131.999 35.0724C132.249 35.1741 132.448 35.2757 132.598 35.3265L132.947 35.4282L133.346 35.5299C133.546 35.5807 133.645 35.6315 133.745 35.6315L133.995 35.7332L134.543 35.8857C134.593 35.8857 134.793 35.9365 135.042 36.0382C135.292 36.1398 135.441 36.1907 135.541 36.2415C135.641 36.2923 135.791 36.3431 135.99 36.4448C136.09 36.4956 136.19 36.5465 136.289 36.5973C136.389 36.6481 136.439 36.699 136.489 36.7498C136.539 36.8006 136.589 36.8514 136.689 36.9531C136.988 37.2581 137.138 37.7156 137.187 38.3255C137.187 38.6813 137.138 38.9863 136.988 39.2913C136.838 39.5963 136.639 39.7996 136.389 40.0029C136.14 40.2062 135.89 40.3587 135.591 40.4604C135.042 40.6637 134.394 40.8162 133.645 40.8162C132.997 40.8162 132.348 40.7653 131.8 40.6129C131.251 40.4604 130.702 40.257 130.153 40.0029L130.453 39.088C131.5 39.5454 132.598 39.7996 133.645 39.7996C134.094 39.7996 134.494 39.7487 134.893 39.6471C135.641 39.4438 136.04 38.9863 136.04 38.3763C136.04 38.173 135.99 37.9697 135.89 37.7664C135.84 37.6647 135.791 37.6139 135.741 37.5631C135.591 37.4106 135.441 37.2581 135.242 37.2073C135.142 37.1564 135.042 37.1056 134.943 37.0548C134.843 37.0039 134.743 36.9531 134.593 36.9531C134.394 36.9023 134.294 36.8514 134.244 36.8514C134.094 36.8006 133.995 36.8006 133.845 36.7498L133.496 36.6481C133.346 36.5973 133.246 36.5973 133.097 36.5465L132.648 36.394L132.199 36.2415C131.999 36.1907 131.85 36.1398 131.75 36.089C131.7 36.089 131.6 36.0382 131.351 35.9365C131.201 35.8857 131.051 35.784 131.001 35.7332C130.702 35.5299 130.553 35.3774 130.453 35.2249C130.203 34.8691 130.104 34.5133 130.104 34.1066C130.104 33.7508 130.153 33.4458 130.303 33.1409C130.453 32.8359 130.602 32.6326 130.852 32.4292C131.051 32.2259 131.351 32.0734 131.65 31.9718C131.949 31.8701 132.249 31.7685 132.548 31.7176C132.847 31.6668 133.196 31.616 133.496 31.616C134.743 31.8193 135.791 32.0226 136.838 32.4801Z" fill="#005AAA"/>
<path d="M142.125 36.4955L144.57 31.9717H145.917L142.674 37.563V40.7652H141.527V37.563L138.334 32.0225H139.681L142.125 36.4955Z" fill="#005AAA"/>
<path d="M153.45 32.4801L153.051 33.395C152.103 32.9884 151.156 32.7851 150.308 32.7851C149.809 32.7851 149.31 32.8867 148.861 33.0392C148.611 33.1409 148.412 33.2934 148.262 33.4967C148.113 33.7 148.063 33.9541 148.063 34.2083C148.063 34.4116 148.113 34.5641 148.212 34.7166C148.362 34.8691 148.512 35.0216 148.611 35.0724C148.861 35.1741 149.06 35.2757 149.21 35.3265L149.559 35.4282L149.958 35.5299C150.158 35.5807 150.258 35.6315 150.357 35.6315L150.607 35.7332L151.156 35.8857C151.206 35.8857 151.405 35.9365 151.655 36.0382C151.904 36.1398 152.054 36.1907 152.153 36.2415C152.253 36.2923 152.403 36.3431 152.602 36.4448C152.702 36.4956 152.802 36.5465 152.902 36.5973C153.001 36.6481 153.051 36.699 153.101 36.7498C153.151 36.8006 153.201 36.8514 153.301 36.9531C153.6 37.2581 153.75 37.7156 153.8 38.3255C153.8 38.6813 153.75 38.9863 153.6 39.2913C153.45 39.5963 153.251 39.7996 153.001 40.0029C152.752 40.2062 152.503 40.3587 152.203 40.4604C151.655 40.6637 151.006 40.8162 150.258 40.8162C149.609 40.8162 148.961 40.7653 148.412 40.6129C147.863 40.4604 147.314 40.257 146.766 40.0029L147.115 39.088C148.162 39.5454 149.26 39.7996 150.308 39.7996C150.757 39.7996 151.156 39.7487 151.555 39.6471C152.303 39.4438 152.702 38.9863 152.702 38.3763C152.702 38.173 152.652 37.9697 152.552 37.7664C152.503 37.6647 152.453 37.6139 152.403 37.5631C152.253 37.4106 152.103 37.2581 151.904 37.2073C151.804 37.1564 151.704 37.1056 151.605 37.0548C151.505 37.0039 151.405 36.9531 151.255 36.9531C151.056 36.9023 150.956 36.8514 150.906 36.8514C150.757 36.8006 150.657 36.8006 150.507 36.7498L150.108 36.6481C149.958 36.5973 149.859 36.5973 149.709 36.5465L149.26 36.394L148.811 36.2415C148.611 36.1907 148.462 36.1398 148.362 36.089C148.312 36.089 148.212 36.0382 148.013 35.9365C147.863 35.8857 147.713 35.784 147.664 35.7332C147.364 35.5299 147.215 35.3774 147.115 35.2249C146.865 34.8691 146.766 34.5133 146.766 34.1066C146.766 33.7508 146.816 33.4458 146.965 33.1409C147.115 32.8359 147.264 32.6326 147.514 32.4292C147.713 32.2259 148.013 32.0734 148.312 31.9718C148.611 31.8701 148.911 31.7685 149.21 31.7176C149.509 31.6668 149.859 31.616 150.158 31.616C151.355 31.8193 152.353 32.0226 153.45 32.4801Z" fill="#005AAA"/>
<path d="M155.146 31.9717H162.33V32.9883H159.287V40.7144H158.14V32.9883H155.146V31.9717Z" fill="#005AAA"/>
<path d="M170.561 39.6978V40.7144H164.275V31.9717H170.362V32.9883H165.373V35.7839H170.112V36.7497H165.373V39.6978H170.561Z" fill="#005AAA"/>
<path d="M177.296 36.8513L180.339 31.9717H181.636V40.7144H180.489V33.6491L177.346 38.4779H177.197L174.054 33.6491V40.7144H172.906V31.9717H174.203L177.296 36.8513Z" fill="#005AAA"/>
<path d="M190.466 32.48L190.067 33.395C189.119 32.9883 188.171 32.785 187.323 32.785C186.824 32.785 186.325 32.8867 185.876 33.0392C185.627 33.1408 185.427 33.2933 185.278 33.4966C185.128 33.6999 185.078 33.9541 185.078 34.2082C185.078 34.4116 185.128 34.5641 185.228 34.7165C185.377 34.869 185.527 35.0215 185.627 35.0724C185.876 35.174 186.076 35.2757 186.226 35.3265L186.575 35.4282L187.074 35.5806C187.273 35.6315 187.373 35.6823 187.473 35.6823L187.722 35.784L188.271 35.9365C188.321 35.9365 188.52 35.9873 188.77 36.0889C189.019 36.1906 189.169 36.2414 189.269 36.2923C189.368 36.3431 189.518 36.3939 189.718 36.4956C189.817 36.5464 189.917 36.5972 190.017 36.6481C190.117 36.6989 190.167 36.7497 190.216 36.8006C190.266 36.8514 190.316 36.9022 190.416 37.0039C190.715 37.3089 190.865 37.7663 190.915 38.3763C190.915 38.7321 190.865 39.0371 190.715 39.3421C190.566 39.647 190.366 39.8504 190.117 40.0537C189.867 40.257 189.618 40.4095 189.318 40.5111C188.77 40.7145 188.121 40.867 187.373 40.867C186.724 40.867 186.076 40.8161 185.527 40.6636C184.978 40.5111 184.43 40.3078 183.881 40.0537L184.23 39.1387C185.278 39.5962 186.375 39.8504 187.423 39.8504C187.872 39.8504 188.271 39.7995 188.67 39.6979C189.418 39.4945 189.817 39.0371 189.817 38.4271C189.817 38.2238 189.767 38.0205 189.668 37.8172C189.618 37.7155 189.568 37.6647 189.518 37.6138C189.368 37.4614 189.219 37.3089 189.019 37.258C188.919 37.2072 188.82 37.1564 188.72 37.1055C188.62 37.0547 188.52 37.0039 188.371 37.0039C188.171 36.9531 188.071 36.9022 188.021 36.9022C187.872 36.8514 187.772 36.8514 187.622 36.8006L187.223 36.6989C187.074 36.6481 186.974 36.6481 186.824 36.5972L186.375 36.4448L185.926 36.2923C185.727 36.2414 185.577 36.1906 185.477 36.1398C185.427 36.1398 185.328 36.0889 185.128 35.9873C184.978 35.9365 184.829 35.8348 184.779 35.784C184.479 35.5806 184.33 35.4282 184.23 35.2757C183.981 34.9199 183.881 34.564 183.881 34.1574C183.881 33.8016 183.931 33.4966 184.08 33.1916C184.23 32.8867 184.38 32.6833 184.629 32.48C184.829 32.2767 185.128 32.1242 185.427 32.0226C185.727 31.9209 186.026 31.8192 186.325 31.7684C186.625 31.7176 186.974 31.6667 187.273 31.6667C188.371 31.8192 189.418 32.0226 190.466 32.48Z" fill="#005AAA"/>
</svg>
