<svg width="140" height="31" viewBox="0 0 140 31" fill="none" xmlns="http://www.w3.org/2000/svg">
<rect width="10" height="10" transform="matrix(-1 0 0 1 10 21)" fill="#515151"/>
<rect width="59" height="4" transform="matrix(-0.928847 0.370463 0.370463 0.928847 62.5181 0)" fill="#515151"/>
<rect width="9" height="2.09902" transform="matrix(-0.928874 0.370395 0.370395 0.928874 61.2225 6.83691)" fill="#515151"/>
<rect width="5.23505" height="2.09902" transform="matrix(-0.928874 0.370395 0.370395 0.928874 59.2225 0)" fill="#515151"/>
<rect width="1" height="4.57103" transform="matrix(-0.928874 0.370395 0.370395 0.928874 60.6515 4.40503)" fill="#515151"/>
<line x1="130" y1="27.25" x2="9" y2="27.25" stroke="#515151" stroke-width="0.5" stroke-dasharray="2 2"/>
<rect x="130" y="21" width="10" height="10" fill="#515151"/>
<rect x="77.4819" width="59" height="4" transform="rotate(21.7442 77.4819 0)" fill="#515151"/>
<rect x="78.7775" y="6.83691" width="9" height="2.09902" transform="rotate(21.74 78.7775 6.83691)" fill="#515151"/>
<rect x="80.7775" width="5.23505" height="2.09902" transform="rotate(21.74 80.7775 0)" fill="#515151"/>
<rect x="79.3485" y="4.40503" width="1" height="4.57103" transform="rotate(21.74 79.3485 4.40503)" fill="#515151"/>
</svg>
