<svg xmlns="http://www.w3.org/2000/svg" width="153" height="153" viewBox="0 0 153 153" fill="none">
  <g clip-path="url(#clip0_261_359)">
    <rect x="8" y="2" width="137" height="138" fill="none" fill-opacity="0.2"/>
    <path d="M21 12H132L96.5 30V129L132 140H23L56.5 129V30L21 12Z" fill="white"/>
    <rect x="5" y="140" width="144" height="11" fill="none" fill-opacity="0.2"/>
    <path d="M30 30L47 38V76H30V30Z" fill="white"/>
    <path d="M124 30L107 38V76H124V30Z" fill="white"/>
    <path d="M124 128L107 120V82H124V128Z" fill="white"/>
    <path d="M30 128L47 120V82H30V128Z" fill="white"/>
    <path d="M146.466 137.422H144.915V85.2823C144.915 84.0795 143.94 83.1047 142.737 83.1047C141.535 83.1047 140.56 84.0795 140.56 85.2823V137.422H133.113V13.9792C133.113 12.8281 132.22 11.8883 131.089 11.8094C131.065 11.8076 131.042 11.8067 131.018 11.8058C130.99 11.8049 130.964 11.8016 130.936 11.8016H22.0643C22.038 11.8016 22.0123 11.8046 21.986 11.8055C21.9556 11.8067 21.9251 11.8076 21.8946 11.81C21.8315 11.8148 21.7697 11.8229 21.7084 11.833C21.689 11.8363 21.6696 11.8381 21.6504 11.842C21.5659 11.8581 21.4831 11.879 21.4024 11.9047C21.397 11.9065 21.392 11.9089 21.3866 11.9104C21.3116 11.9349 21.239 11.9639 21.1678 11.9962C21.1487 12.0048 21.1302 12.0141 21.1114 12.0234C21.0513 12.0527 20.9927 12.0846 20.9357 12.1193C20.924 12.1262 20.9117 12.1312 20.9004 12.1387C20.8941 12.1429 20.8884 12.1477 20.8822 12.1519C20.8107 12.1982 20.7417 12.2472 20.6766 12.301C20.6742 12.3031 20.6721 12.3052 20.67 12.307C20.609 12.3581 20.5514 12.4127 20.4964 12.4701C20.479 12.488 20.4626 12.5072 20.4459 12.5257C20.4055 12.5705 20.3673 12.6168 20.3308 12.665C20.3162 12.6844 20.3012 12.7032 20.2875 12.7229C20.243 12.7857 20.2014 12.8505 20.1638 12.9181C20.1614 12.9222 20.1587 12.9261 20.1563 12.9303C20.1154 13.0047 20.0795 13.0821 20.0472 13.1616C20.0413 13.1765 20.0365 13.1918 20.0308 13.2067C20.0069 13.2698 19.9857 13.334 19.9675 13.4001C19.9612 13.4225 19.9555 13.4452 19.9501 13.4679C19.9352 13.5295 19.9235 13.5919 19.914 13.6553C19.9107 13.678 19.9062 13.7004 19.9035 13.7231C19.8936 13.8071 19.8871 13.8922 19.8871 13.9789V137.421H12.4403V85.2913C12.4403 84.0885 11.4655 83.1137 10.2627 83.1137C9.05993 83.1137 8.08515 84.0885 8.08515 85.2913V137.422H6.53363C3.85793 137.422 1.68066 139.599 1.68066 142.274V148.147C1.68066 150.823 3.85793 153 6.53363 153H146.466C149.142 153 151.319 150.823 151.319 148.147V142.274C151.32 139.599 149.142 137.422 146.466 137.422ZM128.75 17.4226V137.422H125.824L98.4358 127.183V31.8058L128.75 17.4226ZM121.258 16.1568L96.3494 27.9751C94.95 28.6391 94.0807 29.962 94.0807 31.4275V127.592C94.0807 129.179 95.1048 130.587 96.6901 131.18L113.387 137.422H39.6058L56.3026 131.18C57.8875 130.588 58.9116 129.179 58.9116 127.592V31.4278C58.9116 29.9626 58.0426 28.6397 56.6432 27.9754L31.7338 16.1568H121.258ZM24.2416 17.4226L54.5562 31.8058V127.184L27.168 137.422H24.2416V17.4226ZM146.467 148.645H6.53393C6.25931 148.645 6.03579 148.422 6.03579 148.147V142.274C6.03579 142 6.25931 141.776 6.53393 141.776H10.2627H22.0643H27.5619H125.43H130.928H130.936H142.738H146.466C146.741 141.776 146.965 142 146.965 142.274V148.147C146.965 148.422 146.741 148.645 146.467 148.645Z" fill="black"/>
    <path d="M139.281 0H13.7196C10.6126 0 8.08545 2.52749 8.08545 5.6344V74.8065C8.08545 76.0093 9.06023 76.9841 10.263 76.9841C11.4658 76.9841 12.4406 76.0093 12.4406 74.8065V5.6344C12.4406 4.92887 13.0146 4.35482 13.7202 4.35482H139.281C139.987 4.35482 140.561 4.92887 140.561 5.6344V74.9213C140.561 76.1241 141.536 77.0988 142.738 77.0988C143.941 77.0988 144.916 76.1241 144.916 74.9213V5.6344C144.915 2.52749 142.388 0 139.281 0Z" fill="black"/>
    <path d="M121.66 27.8C121.25 27.8 120.842 27.8962 120.478 28.0776L105.273 35.6837C104.408 36.1158 103.871 36.9752 103.871 37.9264V74.4178C103.871 75.8235 105.058 76.9751 106.516 76.9844L121.703 77.0827C121.708 77.0827 121.717 77.0827 121.722 77.0827C123.169 77.0827 124.346 75.94 124.346 74.5349V30.4025C124.346 28.9675 123.141 27.8 121.66 27.8ZM119.99 72.7168L108.225 72.6409V39.0754L119.99 33.1908V72.7168Z" fill="black"/>
    <path d="M121.696 80.16L106.507 80.3127C105.054 80.3283 103.871 81.4809 103.871 82.8818V121.24C103.871 122.268 104.499 123.183 105.475 123.572L120.678 129.612C120.991 129.736 121.32 129.798 121.659 129.798C123.14 129.798 124.346 128.63 124.346 127.194V82.7061C124.346 81.3022 123.17 80.16 121.696 80.16ZM119.99 124.652L108.226 119.979V84.6505L119.99 84.5319V124.652Z" fill="black"/>
    <path d="M46.484 80.3127L31.2686 80.16C29.8229 80.16 28.647 81.3022 28.647 82.7061V127.194C28.6467 128.63 29.8518 129.798 31.3331 129.798C31.672 129.798 32.0016 129.735 32.3133 129.612L47.5189 123.571C48.4924 123.184 49.1212 122.269 49.1212 121.24V82.8818C49.1212 81.4809 47.9384 80.3283 46.484 80.3127ZM44.7664 119.979L33.0015 124.653V84.5325L44.7664 84.6508V119.979Z" fill="black"/>
    <path d="M47.7209 35.6837L32.5141 28.0776C32.151 27.8962 31.7422 27.8 31.3322 27.8C29.8515 27.8 28.647 28.9675 28.647 30.4025V74.5352C28.647 75.94 29.8241 77.083 31.2704 77.083C31.2752 77.083 31.2838 77.083 31.2886 77.083L46.4763 76.9847C47.9348 76.9754 49.1215 75.8238 49.1215 74.4178V37.9264C49.1215 36.9761 48.5854 36.117 47.7209 35.6837ZM44.7667 72.6409L33.0018 72.7168V33.1908L44.7667 39.0754V72.6409Z" fill="black"/>
  </g>
  <defs>
    <clipPath id="clip0_261_359">
      <rect width="153" height="153" fill="white"/>
    </clipPath>
  </defs>
</svg>