<svg width="41" height="41" viewBox="0 0 41 41" fill="none" xmlns="http://www.w3.org/2000/svg">
<path d="M28.3886 0C28.484 0 28.5795 0 28.6803 0C28.9143 2.89141 27.8107 5.05186 26.4694 6.61639C25.1533 8.17011 23.3512 9.67703 20.4363 9.44838C20.2419 6.59838 21.3473 4.59816 22.6868 3.03724C23.9291 1.58253 26.2066 0.28806 28.3886 0Z" fill="black"/>
<path d="M37.2129 30.0951C37.2129 30.1239 37.2129 30.1491 37.2129 30.1761C36.3937 32.657 35.2253 34.7832 33.7994 36.7565C32.4977 38.5478 30.9026 40.9585 28.0544 40.9585C25.5933 40.9585 23.9585 39.376 21.4362 39.3328C18.7681 39.2896 17.3007 40.6561 14.8612 41C14.5822 41 14.3031 41 14.0295 41C12.2381 40.7407 10.7924 39.322 9.73916 38.0437C6.63351 34.2665 4.2336 29.3875 3.78711 23.1438C3.78711 22.5317 3.78711 21.9213 3.78711 21.3092C3.97615 16.8407 6.1474 13.2075 9.03341 11.4467C10.5565 10.5106 12.6504 9.71299 14.9819 10.0695C15.9811 10.2243 17.0019 10.5664 17.8967 10.9048C18.7446 11.2307 19.8051 11.8086 20.8097 11.778C21.4902 11.7582 22.1672 11.4035 22.8531 11.1533C24.8623 10.4277 26.8319 9.59596 29.4281 9.98664C32.5481 10.4583 34.7626 11.8446 36.1309 13.9835C33.4915 15.6632 31.4049 18.1946 31.7614 22.5173C32.0782 26.4439 34.3611 28.7412 37.2129 30.0951Z" fill="black"/>
</svg>
