<svg width="160" height="159" viewBox="0 0 160 159" fill="none" xmlns="http://www.w3.org/2000/svg">
<path d="M141.507 132.001H124.478V24.8252C124.478 24.2909 124.28 23.7754 123.922 23.3772C123.564 22.9789 123.07 22.7258 122.536 22.6662L65.0359 16.2168C64.7299 16.1825 64.4201 16.2128 64.1267 16.3058C63.8333 16.3987 63.5629 16.5521 63.3333 16.756C63.1037 16.9599 62.92 17.2097 62.7942 17.4891C62.6685 17.7684 62.6034 18.071 62.6034 18.377V22.6513H37.7084C37.1283 22.6513 36.5719 22.8804 36.1616 23.288C35.7514 23.6957 35.5209 24.2486 35.5209 24.8252V132.001H18.4922C17.912 132.001 17.3556 132.23 16.9454 132.638C16.5352 133.045 16.3047 133.598 16.3047 134.175C16.3047 134.751 16.5352 135.304 16.9454 135.712C17.3556 136.12 17.912 136.349 18.4922 136.349H62.6034V140.623C62.6034 141.2 62.8339 141.753 63.2441 142.16C63.6544 142.568 64.2108 142.797 64.7909 142.797C64.8745 142.798 64.958 142.793 65.0409 142.783L122.416 136.349H141.511C142.091 136.349 142.647 136.12 143.058 135.712C143.468 135.304 143.698 134.751 143.698 134.175C143.698 133.598 143.468 133.045 143.058 132.638C142.647 132.23 142.091 132.001 141.511 132.001H141.507ZM39.8959 26.999H62.6034V32.5888H47.7072C47.127 32.5888 46.5706 32.8179 46.1604 33.2255C45.7502 33.6332 45.5197 34.1861 45.5197 34.7627V132.001H39.8947L39.8959 26.999ZM49.8959 132.001V36.9365H62.6034V132.001H49.8959ZM66.9784 20.8092L120.103 26.7717V132.233L66.9784 138.196V20.8092Z" fill="black"/>
<path d="M76.4065 73.0306C75.1189 73.0306 73.8603 73.4101 72.7897 74.1209C71.7192 74.8318 70.8848 75.8421 70.392 77.0243C69.8993 78.2064 69.7704 79.5071 70.0216 80.7621C70.2728 82.017 70.8928 83.1697 71.8032 84.0744C72.7137 84.9792 73.8736 85.5953 75.1365 85.845C76.3993 86.0946 77.7082 85.9665 78.8978 85.4768C80.0873 84.9872 81.104 84.158 81.8194 83.0941C82.5347 82.0302 82.9165 80.7795 82.9165 79.5C82.9145 77.7848 82.228 76.1404 81.0076 74.9276C79.7871 73.7148 78.1324 73.0326 76.4065 73.0306ZM76.4065 81.6216C75.9842 81.6216 75.5714 81.4972 75.2203 81.264C74.8692 81.0309 74.5956 80.6996 74.434 80.3119C74.2724 79.9242 74.2301 79.4976 74.3125 79.086C74.3949 78.6745 74.5982 78.2964 74.8968 77.9997C75.1954 77.703 75.5758 77.5009 75.99 77.4191C76.4041 77.3372 76.8334 77.3792 77.2235 77.5398C77.6136 77.7004 77.9471 77.9723 78.1817 78.3212C78.4163 78.6701 78.5415 79.0803 78.5415 79.5C78.5408 80.0624 78.3157 80.6017 77.9154 80.9995C77.5152 81.3972 76.9725 81.621 76.4065 81.6216Z" fill="black"/>
</svg>
