<svg width="27" height="27" viewBox="0 0 27 27" fill="none" xmlns="http://www.w3.org/2000/svg">
<path d="M0.1716 12.9747C0.412807 12.6448 6.15997 4.89551 13.5001 4.89551C20.8403 4.89551 26.5877 12.6448 26.8287 12.9744C27.0571 13.2875 27.0571 13.712 26.8287 14.0251C26.5877 14.355 20.8403 22.1043 13.5001 22.1043C6.15997 22.1043 0.412807 14.355 0.1716 14.0253C-0.0571632 13.7123 -0.0571632 13.2875 0.1716 12.9747ZM13.5001 20.3241C18.9069 20.3241 23.5898 15.1807 24.9761 13.4993C23.5916 11.8164 18.9185 6.67572 13.5001 6.67572C8.09358 6.67572 3.41102 11.8182 2.02421 13.5005C3.40865 15.1834 8.08172 20.3241 13.5001 20.3241Z" fill="black"/>
<path d="M13.4992 8.15942C16.444 8.15942 18.8398 10.5553 18.8398 13.5001C18.8398 16.4449 16.444 18.8408 13.4992 18.8408C10.5544 18.8408 8.15847 16.4449 8.15847 13.5001C8.15847 10.5553 10.5544 8.15942 13.4992 8.15942ZM13.4992 17.0605C15.4625 17.0605 17.0596 15.4634 17.0596 13.5001C17.0596 11.5369 15.4624 9.93969 13.4992 9.93969C11.5359 9.93969 9.93874 11.5369 9.93874 13.5001C9.93874 15.4634 11.5359 17.0605 13.4992 17.0605Z" fill="black"/>
<line x1="4.72701" y1="4.31338" x2="21.727" y2="22.3134" stroke="black" stroke-width="2"/>
</svg>
