<svg width="41" height="41" viewBox="0 0 41 41" fill="none" xmlns="http://www.w3.org/2000/svg">
<g clip-path="url(#clip0_676_94)">
<path d="M41 20.5C41 30.7324 33.5031 39.2135 23.7031 40.751V26.4258H28.4798L29.3887 20.5H23.7031V16.6546C23.7031 15.0331 24.4975 13.4531 27.044 13.4531H29.6289V8.4082C29.6289 8.4082 27.2826 8.00781 25.0396 8.00781C20.3575 8.00781 17.2969 10.8458 17.2969 15.9836V20.5H12.0918V26.4258H17.2969V40.751C7.49691 39.2135 0 30.7324 0 20.5C0 9.17856 9.17855 0 20.5 0C31.8214 0 41 9.17856 41 20.5Z" fill="#1877F2"/>
<path d="M28.4798 26.4258L29.3887 20.5H23.7031V16.6546C23.7031 15.0334 24.4973 13.4531 27.0439 13.4531H29.6289V8.4082C29.6289 8.4082 27.2829 8.00781 25.04 8.00781C20.3574 8.00781 17.2969 10.8458 17.2969 15.9836V20.5H12.0918V26.4258H17.2969V40.7509C18.3406 40.9146 19.4103 41 20.5 41C21.5897 41 22.6594 40.9146 23.7031 40.7509V26.4258H28.4798Z" fill="white"/>
</g>
<defs>
<clipPath id="clip0_676_94">
<rect width="41" height="41" fill="white"/>
</clipPath>
</defs>
</svg>
