<svg width="140" height="31" viewBox="0 0 140 31" fill="none" xmlns="http://www.w3.org/2000/svg">
<rect x="10" y="10" width="10" height="10" transform="rotate(-180 10 10)" fill="#515151"/>
<rect x="62.5181" y="31" width="59" height="4" transform="rotate(-158.256 62.5181 31)" fill="#515151"/>
<rect x="61.2225" y="24.1631" width="9" height="2.09902" transform="rotate(-158.26 61.2225 24.1631)" fill="#515151"/>
<rect x="59.2225" y="31" width="5.23505" height="2.09902" transform="rotate(-158.26 59.2225 31)" fill="#515151"/>
<rect x="60.6515" y="26.595" width="1" height="4.57103" transform="rotate(-158.26 60.6515 26.595)" fill="#515151"/>
<line y1="-0.25" x2="121" y2="-0.25" transform="matrix(-1 0 0 1 130 4)" stroke="#515151" stroke-width="0.5" stroke-dasharray="2 2"/>
<rect width="10" height="10" transform="matrix(1 0 0 -1 130 10)" fill="#515151"/>
<rect width="59" height="4" transform="matrix(0.928847 -0.370463 -0.370463 -0.928847 77.4819 31)" fill="#515151"/>
<rect width="9" height="2.09902" transform="matrix(0.928874 -0.370395 -0.370395 -0.928874 78.7775 24.1631)" fill="#515151"/>
<rect width="5.23505" height="2.09902" transform="matrix(0.928874 -0.370395 -0.370395 -0.928874 80.7775 31)" fill="#515151"/>
<rect width="1" height="4.57103" transform="matrix(0.928874 -0.370395 -0.370395 -0.928874 79.3485 26.595)" fill="#515151"/>
</svg>
