<svg width="151" height="151" viewBox="0 0 151 151" fill="none" xmlns="http://www.w3.org/2000/svg">
<path d="M143.922 129.766H129.766V113.25V66.0625V54.2656H136.844C138.148 54.2656 139.203 53.2092 139.203 51.9062V37.75C139.203 36.447 138.148 35.3906 136.844 35.3906H127.406V18.875C127.406 17.572 126.351 16.5156 125.047 16.5156H25.9531C24.6502 16.5156 23.5938 17.572 23.5938 18.875V35.3906H14.1562C12.8533 35.3906 11.7969 36.447 11.7969 37.75V51.9062C11.7969 53.2092 12.8533 54.2656 14.1562 54.2656H21.2344V129.766H7.07812C5.77517 129.766 4.71875 130.821 4.71875 132.125C4.71875 133.429 5.77517 134.484 7.07812 134.484H23.5938H33.0312H70.7812H127.406H143.922C145.226 134.484 146.281 133.429 146.281 132.125C146.281 130.821 145.226 129.766 143.922 129.766ZM28.3125 21.2344H122.688V35.3906H28.3125V21.2344ZM68.4219 129.766H35.3906V68.4219H68.4219V129.766ZM125.047 110.891H82.5781V68.4219H125.047V110.891ZM125.047 63.7031H80.2188C78.9146 63.7031 77.8594 64.7595 77.8594 66.0625V113.25C77.8594 114.554 78.9146 115.609 80.2188 115.609H125.047V129.766H73.1406V66.0625C73.1406 64.7595 72.0842 63.7031 70.7812 63.7031H33.0312C31.7283 63.7031 30.6719 64.7595 30.6719 66.0625V129.766H25.9531V54.2656H125.047V63.7031ZM23.5938 49.5469H16.5156V40.1094H25.9531H125.047H134.484V49.5469H127.406H23.5938Z" fill="black"/>
</svg>
