<svg width="119" height="118" viewBox="0 0 119 118" fill="none" xmlns="http://www.w3.org/2000/svg">
<g clip-path="url(#clip0_685_2319)">
<path d="M113.918 105.985H112.711V65.7733C112.711 64.8456 111.953 64.0939 111.017 64.0939C110.082 64.0939 109.324 64.8456 109.324 65.7733V105.985H103.532V10.7814C103.532 9.89359 102.837 9.16876 101.957 9.10792C101.939 9.10654 101.921 9.10585 101.902 9.10516C101.881 9.10446 101.86 9.10193 101.838 9.10193H17.1606C17.1401 9.10193 17.1202 9.10423 17.0997 9.10492C17.076 9.10585 17.0523 9.10654 17.0286 9.10838C16.9795 9.11207 16.9314 9.11829 16.8838 9.12613C16.8687 9.12866 16.8536 9.13005 16.8387 9.13304C16.7729 9.14549 16.7085 9.16162 16.6458 9.18144C16.6416 9.18282 16.6377 9.18467 16.6335 9.18582C16.5751 9.20472 16.5187 9.22707 16.4633 9.25196C16.4485 9.25865 16.4341 9.26579 16.4194 9.27294C16.3727 9.29552 16.3271 9.32018 16.2827 9.34692C16.2737 9.35222 16.2642 9.35614 16.2553 9.3619C16.2504 9.36512 16.246 9.36881 16.2411 9.37204C16.1856 9.40776 16.1319 9.44556 16.0812 9.48704C16.0794 9.48866 16.0777 9.49027 16.0761 9.49165C16.0287 9.53106 15.9838 9.57324 15.9411 9.61749C15.9276 9.63132 15.9148 9.64607 15.9018 9.66035C15.8704 9.69492 15.8407 9.73065 15.8123 9.76775C15.8009 9.78273 15.7893 9.79725 15.7786 9.81246C15.744 9.86086 15.7117 9.91087 15.6824 9.96296C15.6805 9.96619 15.6784 9.96918 15.6766 9.97241C15.6447 10.0298 15.6169 10.0895 15.5918 10.1508C15.5871 10.1623 15.5834 10.1741 15.579 10.1856C15.5604 10.2342 15.5439 10.2838 15.5297 10.3347C15.5248 10.352 15.5204 10.3695 15.5162 10.387C15.5046 10.4345 15.4955 10.4827 15.4881 10.5315C15.4855 10.549 15.4821 10.5663 15.48 10.5838C15.4723 10.6486 15.4672 10.7143 15.4672 10.7811V105.985H9.67522V65.7802C9.67522 64.8526 8.91706 64.1008 7.98156 64.1008C7.04607 64.1008 6.28791 64.8526 6.28791 65.7802V105.985H5.08117C3.00007 105.985 1.30664 107.664 1.30664 109.728V114.257C1.30664 116.321 3.00007 118 5.08117 118H113.918C115.999 118 117.692 116.321 117.692 114.257V109.728C117.693 107.664 115.999 105.985 113.918 105.985ZM100.139 13.437V105.985H97.8626L76.5607 98.0891V24.53L100.139 13.437ZM94.3114 12.4608L74.9379 21.5756C73.8495 22.0877 73.1733 23.108 73.1733 24.2382V98.4042C73.1733 99.628 73.9699 100.714 75.2029 101.172L88.189 105.985H30.804L43.7903 101.172C45.0231 100.715 45.8196 99.6284 45.8196 98.4042V24.2384C45.8196 23.1084 45.1437 22.0882 44.0553 21.5758L24.6813 12.4608H94.3114ZM18.854 13.437L42.4321 24.53V98.0896L21.1301 105.985H18.854V13.437ZM113.918 114.641H5.0814C4.86781 114.641 4.69396 114.469 4.69396 114.257V109.728C4.69396 109.516 4.86781 109.344 5.0814 109.344H7.98156H17.1606H21.4365H97.5563H101.832H101.838H111.018H113.918C114.131 109.344 114.305 109.516 114.305 109.728V114.257C114.306 114.469 114.132 114.641 113.918 114.641Z" fill="black"/>
<path d="M108.33 0H10.6711C8.25465 0 6.28906 1.9493 6.28906 4.34549V57.6939C6.28906 58.6216 7.04722 59.3734 7.98272 59.3734C8.91822 59.3734 9.67638 58.6216 9.67638 57.6939V4.34549C9.67638 3.80135 10.1229 3.35862 10.6716 3.35862H108.33C108.879 3.35862 109.325 3.80135 109.325 4.34549V57.7824C109.325 58.7101 110.084 59.4619 111.019 59.4619C111.955 59.4619 112.713 58.7101 112.713 57.7824V4.34549C112.712 1.9493 110.746 0 108.33 0Z" fill="black"/>
<path d="M94.6251 21.4406C94.3063 21.4406 93.9883 21.5148 93.7057 21.6547L81.8791 27.5208C81.2067 27.854 80.7891 28.5169 80.7891 29.2504V57.3941C80.7888 58.4783 81.712 59.3665 82.8462 59.3736L94.6586 59.4495C94.6623 59.4495 94.6693 59.4495 94.673 59.4495C95.7984 59.4495 96.7137 58.5681 96.7137 57.4845V23.4477C96.7137 22.341 95.777 21.4406 94.6251 21.4406ZM93.3261 56.0823L84.1757 56.0238V30.1366L93.3261 25.5982V56.0823Z" fill="black"/>
<path d="M94.6533 61.8228L82.8395 61.9405C81.709 61.9525 80.7891 62.8414 80.7891 63.9219V93.5053C80.7888 94.2981 81.2776 95.0036 82.0362 95.3036L93.8614 99.9619C94.1043 100.058 94.3606 100.106 94.6242 100.106C95.7763 100.106 96.7137 99.2048 96.7137 98.0974V63.7864C96.7137 62.7036 95.7991 61.8228 94.6533 61.8228ZM93.3264 96.137L84.1759 92.5325V65.286L93.3264 65.1945V96.137Z" fill="black"/>
<path d="M36.1545 61.9405L24.3203 61.8228C23.1958 61.8228 22.2813 62.7036 22.2813 63.7864V98.0974C22.281 99.2048 23.2184 100.106 24.3705 100.106C24.6341 100.106 24.8904 100.057 25.1328 99.9619L36.9594 95.3034C37.7166 95.0047 38.2056 94.2988 38.2056 93.5055V63.9219C38.2056 62.8414 37.2857 61.9525 36.1545 61.9405ZM34.8186 92.5329L25.6681 96.1372V65.195L34.8186 65.2862V92.5329Z" fill="black"/>
<path d="M37.1165 27.5208L25.289 21.6547C25.0066 21.5148 24.6887 21.4406 24.3698 21.4406C23.2181 21.4406 22.2812 22.341 22.2812 23.4477V57.4847C22.2812 58.5681 23.1968 59.4497 24.3217 59.4497C24.3254 59.4497 24.3321 59.4497 24.3359 59.4497L36.1485 59.3739C37.2829 59.3667 38.2059 58.4785 38.2059 57.3941V29.2504C38.2059 28.5176 37.7889 27.855 37.1165 27.5208ZM34.8188 56.0238L25.6683 56.0823V25.5982L34.8188 30.1366V56.0238Z" fill="black"/>
</g>
<defs>
<clipPath id="clip0_685_2319">
<rect width="119" height="118" fill="white"/>
</clipPath>
</defs>
</svg>
